M48
; DRILL file {KiCad 8.0.4-8.0.4-0~ubuntu22.04.1} date 2024-08-05T19:19:54+0530
; FORMAT={-:-/ absolute / inch / decimal}
; #@! TF.CreationDate,2024-08-05T19:19:54+05:30
; #@! TF.GenerationSoftware,Kicad,Pcbnew,8.0.4-8.0.4-0~ubuntu22.04.1
; #@! TF.FileFunction,Plated,1,2,PTH
FMAT,2
INCH
; #@! TA.AperFunction,Plated,PTH,ViaDrill
T1C0.0276
; #@! TA.AperFunction,Plated,PTH,ComponentDrill
T2C0.0315
; #@! TA.AperFunction,Plated,PTH,ComponentDrill
T3C0.0354
; #@! TA.AperFunction,Plated,PTH,ComponentDrill
T4C0.0394
; #@! TA.AperFunction,Plated,PTH,ComponentDrill
T5C0.0429
%
G90
G05
T1
X5.3258Y-1.6654
X5.5256Y-1.6624
X6.4173Y-1.1102
T2
X5.1256Y-0.9055
X5.1256Y-2.5591
X5.2362Y-1.7398
X5.2362Y-2.0398
X5.4134Y-1.7398
X5.4134Y-2.0398
X5.4256Y-0.9055
X5.4256Y-2.5591
T3
X4.8622Y-2.5591
X4.9197Y-0.9055
X4.9622Y-2.5591
X5.0197Y-0.9055
T4
X5.5869Y-2.3504
X5.5869Y-2.4504
X5.5869Y-2.5504
X5.5869Y-2.6504
X5.5869Y-2.7504
X5.5869Y-2.8504
X5.5869Y-2.9504
X5.5869Y-3.0504
X5.5869Y-3.1504
X5.5869Y-3.2504
X5.7314Y-2.1339
X5.8314Y-2.1339
X5.9314Y-2.1339
X6.0314Y-2.1339
X6.1314Y-2.1339
X6.2735Y-2.3512
X6.2735Y-2.4512
X6.2735Y-2.5512
X6.2735Y-2.6512
X6.2735Y-2.7512
X6.2735Y-2.8512
X6.2735Y-2.9512
X6.2735Y-3.0512
X6.2735Y-3.1512
X6.2735Y-3.2512
X6.4173Y-0.9252
X6.5173Y-0.9252
T5
X4.9409Y-1.9472
X4.9409Y-2.0472
X4.9409Y-2.1472
X4.9409Y-2.2472
X4.9409Y-2.874
X4.9409Y-2.974
X4.9409Y-3.074
X4.9409Y-3.174
X4.9606Y-1.4535
X4.9606Y-1.5535
X4.9606Y-1.6535
X5.0969Y-3.6417
X5.1969Y-3.6417
X5.2969Y-3.6417
X5.3969Y-3.6417
X5.8976Y-3.5827
X5.9976Y-3.5827
X6.0976Y-3.5827
X6.1976Y-3.5827
X6.2976Y-3.5827
X6.3976Y-3.5827
X6.8701Y-1.5945
X6.8701Y-1.6945
X6.8701Y-1.7945
X6.8701Y-1.8945
X6.8701Y-1.9945
X6.8701Y-2.0945
X6.8701Y-2.3756
X6.8701Y-2.4756
X6.8701Y-2.5756
X6.8701Y-2.6756
X6.8701Y-2.7756
X6.8701Y-2.8756
X6.8701Y-3.148
X6.8701Y-3.248
X6.8701Y-3.348
X6.8701Y-3.448
X6.8701Y-3.548
X6.8701Y-3.648
T4
G00X6.6637Y-1.1811
M15
G01X6.6637Y-1.2598
M16
G05
G00X6.8881Y-1.1024
M15
G01X6.8094Y-1.1024
M16
G05
G00X6.8881Y-1.3386
M15
G01X6.8094Y-1.3386
M16
G05
M30
